<!DOCTYPE svg PUBLIC "-//W3C//DTD SVG 1.1//EN" "http://www.w3.org/Graphics/SVG/1.1/DTD/svg11.dtd">
<!-- Uploaded to: SVG Repo, www.svgrepo.com, Transformed by: SVG Repo Mixer Tools -->
<svg fill="#000000" version="1.1" id="Capa_1" xmlns="http://www.w3.org/2000/svg" xmlns:xlink="http://www.w3.org/1999/xlink" width="128px" height="128px" viewBox="0 0 124 124" xml:space="preserve">
<g id="SVGRepo_bgCarrier" stroke-width="0"/>
<g id="SVGRepo_tracerCarrier" stroke-linecap="round" stroke-linejoin="round"/>
<g id="SVGRepo_iconCarrier"> <g> <path d="M6,97.95h112c3.3,0,6-2.7,6-6v-59.9c0-3.3-2.7-6-6-6H6c-3.3,0-6,2.7-6,6v60C0,95.35,2.7,97.95,6,97.95z M74.1,58.25 c2.4-2.4,6.301-2.4,8.7,0l5.2,5.2v-17.4c0-3.4,2.8-6.2,6.199-6.2c3.4,0,6.201,2.8,6.201,6.2v17.4l5.5-5.5 c2.399-2.4,6.299-2.4,8.699,0c1.2,1.2,1.801,2.8,1.801,4.3s-0.601,3.1-1.801,4.3l-16,16c-2.4,2.4-6.3,2.4-8.699,0l-15.701-15.7 C71.699,64.55,71.699,60.65,74.1,58.25z M6.9,42.65c0-1.7,1.3-3,3-3h15c1.4,0,2.6,0.9,2.9,2.2l4.7,18c0.8,3,5,3,5.8,0l4.6-17.9 c0.3-1.3,1.5-2.2,2.9-2.2h15c1.7,0,3,1.3,3,3v38.7c0,1.699-1.3,3-3,3h-7.3c-1.7,0-3-1.301-3-3V73.35c0-3.6-5.1-4.1-5.9-0.7 l-2.3,9.4c-0.3,1.4-1.5,2.3-2.9,2.3h-8.2c-1.4,0-2.6-1-2.9-2.3l-2.2-9.3c-0.8-3.5-5.9-2.9-5.9,0.7v7.899c0,1.7-1.3,3-3,3H9.9 c-1.7,0-3-1.3-3-3V42.65z"/> </g> </g>
</svg>